<?xml version="1.0" encoding="utf-8"?>
<!-- Generator: Adobe Illustrator 19.0.0, SVG Export Plug-In . SVG Version: 6.00 Build 0)  -->
<svg version="1.1" id="圖層_1" xmlns="http://www.w3.org/2000/svg" xmlns:xlink="http://www.w3.org/1999/xlink" x="0px" y="0px"
	 viewBox="0 0 287.3 253.6" style="enable-background:new 0 0 287.3 253.6;" xml:space="preserve">
<style type="text/css">
	.st0{fill:none;stroke:#000000;stroke-width:6;stroke-miterlimit:10;}
</style>
<g id="XMLID_267_">
	<path id="XMLID_268_" d="M77,253.6c-13.2,0.1-27.9-1.4-42.4-5.1c-7.8-2-15.4-4.6-22.3-8.9c-3.5-2.1-6.8-4.6-9.2-7.9
		c-2-2.7-3-5.7-3-9.1c0.1-15.6,2-30.9,6.6-45.8c3.2-10.3,7.6-20,14.2-28.6C31.3,134.5,45,126.2,62,123.3c11.7-2,23.4-1.8,35,1
		c17.7,4.3,31.1,14.4,40.6,29.8c6.4,10.3,10.3,21.6,12.9,33.3c2.6,11.8,3.7,23.7,3.7,35.8c0,4.5-2.2,8-5.2,11
		c-3.8,3.8-8.4,6.5-13.3,8.7c-7.7,3.6-15.9,5.8-24.2,7.4C100.7,252.5,89.7,253.5,77,253.6z M114.2,184.2c0-3.1-0.7-5.4-2.4-7.4
		c-2.9-3.3-7.5-3.4-10.5-0.2c-3.8,4-3.5,10.9,0.6,14.5c2.6,2.3,6.4,2.3,9,0.1C113.2,189.3,114.2,186.7,114.2,184.2z M55.5,183.3
		c0-2.1-0.7-4.3-2.3-6.3c-2.9-3.5-7.7-3.6-10.7-0.2c-3.6,4-3.3,10.7,0.7,14.4c2.6,2.4,6.5,2.4,9.1,0
		C54.5,189.2,55.5,186.7,55.5,183.3z"/>
</g>
<g id="XMLID_273_">
	<path id="XMLID_781_" class="st0" d="M162.2,135.9c0.7,0.2,1.3,0.3,2,0.5c7.7-3.9,15.4-7.9,23.1-11.7c1.8-0.9,3.8-1.5,5.8-1.7
		c9.6-1.1,19.4-1.2,28.8-3.2c19.5-4,37.1-12.2,50.6-27.6c15.3-17.5,15.7-40.3,0.1-57.6c-5.5-6.2-12.2-11.8-19.3-16
		c-26.9-15.8-56-18.7-86.2-12.5c-18.9,3.9-35.9,11.8-49.4,26.1C100,51.1,99.8,75.7,118.3,94c7.2,7.1,15.9,13.7,25.2,17.6
		C154.8,116.4,163.7,121.2,162.2,135.9z"/>
	<g id="XMLID_1_">
		<path id="XMLID_3_" d="M143.2,61.3l-2.4,3.7l-5-2.1c5.5-8.1,8.9-17,10.1-26.7l5.2,0.7c-0.8,4.7-1.7,9-2.9,12.6v44h-5V61.3z
			 M160.3,55.8v-7.8h-6.9v-5.3h6.9V36h5.3v6.7h12.9V36h5.3v6.7h7.8v5.3h-7.8v7.8h9.8v5.3h-42.1v-5.3H160.3z M159.9,90.3v2.9h-5.2V66
			c-0.1-0.5,0.1-0.9,0.8-0.9h33.7c0.7,0,1.1,0.4,1.1,1.1v27h-5.3v-2.9H159.9z M159.9,75.5h25.1v-4.7c0-0.5-0.2-0.7-0.8-0.7h-23.6
			c-0.6,0-0.7,0.2-0.7,0.7V75.5z M185.1,80.6h-25.1v4.7h25.1V80.6z M165.5,55.8h12.9v-7.8h-12.9V55.8z"/>
		<path id="XMLID_10_" d="M198.9,89.4c8.1-8,19-19,25.1-44.8h-17.2v-5.3h22c1.1,0,1.6,0.6,1.7,1.7c4.5,25.7,13.1,36,25.4,48.7
			l-4.5,3.1l-5.8-6.5c-8.8-10.2-14.9-22.4-18-36.4c-4.5,15.6-12.7,29.8-24.4,42.5L198.9,89.4z"/>
	</g>
</g>
</svg>
