<?xml version="1.0" encoding="utf-8"?>
<!-- Generator: Adobe Illustrator 19.0.0, SVG Export Plug-In . SVG Version: 6.00 Build 0)  -->
<svg version="1.1" id="圖層_1" xmlns="http://www.w3.org/2000/svg" xmlns:xlink="http://www.w3.org/1999/xlink" x="0px" y="0px"
	 viewBox="0 0 287.3 253.6" style="enable-background:new 0 0 287.3 253.6;" xml:space="preserve">
<style type="text/css">
	.st0{fill:none;stroke:#000000;stroke-width:6;stroke-miterlimit:10;}
</style>
<g id="XMLID_267_">
	<path id="XMLID_268_" d="M77,253.6c-13.2,0.1-27.9-1.4-42.4-5.1c-7.8-2-15.4-4.6-22.3-8.9c-3.5-2.1-6.8-4.6-9.2-7.9
		c-2-2.7-3-5.7-3-9.1c0.1-15.6,2-30.9,6.6-45.8c3.2-10.3,7.6-20,14.2-28.6C31.3,134.5,45,126.2,62,123.3c11.7-2,23.4-1.8,35,1
		c17.7,4.3,31.1,14.4,40.6,29.8c6.4,10.3,10.3,21.6,12.9,33.3c2.6,11.8,3.7,23.7,3.7,35.8c0,4.5-2.2,8-5.2,11
		c-3.8,3.8-8.4,6.5-13.3,8.7c-7.7,3.6-15.9,5.8-24.2,7.4C100.7,252.5,89.7,253.5,77,253.6z M114.2,184.2c0-3.1-0.7-5.4-2.4-7.4
		c-2.9-3.3-7.5-3.4-10.5-0.2c-3.8,4-3.5,10.9,0.6,14.5c2.6,2.3,6.4,2.3,9,0.1C113.2,189.3,114.2,186.7,114.2,184.2z M55.5,183.3
		c0-2.1-0.7-4.3-2.3-6.3c-2.9-3.5-7.7-3.6-10.7-0.2c-3.6,4-3.3,10.7,0.7,14.4c2.6,2.4,6.5,2.4,9.1,0
		C54.5,189.2,55.5,186.7,55.5,183.3z"/>
</g>
<g id="XMLID_273_">
	<path id="XMLID_781_" class="st0" d="M162.2,135.9c0.7,0.2,1.3,0.3,2,0.5c7.7-3.9,15.4-7.9,23.1-11.7c1.8-0.9,3.8-1.5,5.8-1.7
		c9.6-1.1,19.4-1.2,28.8-3.2c19.5-4,37.1-12.2,50.6-27.6c15.3-17.5,15.7-40.3,0.1-57.6c-5.5-6.2-12.2-11.8-19.3-16
		c-26.9-15.8-56-18.7-86.2-12.5c-18.9,3.9-35.9,11.8-49.4,26.1C100,51.1,99.8,75.7,118.3,94c7.2,7.1,15.9,13.7,25.2,17.6
		C154.8,116.4,163.7,121.2,162.2,135.9z"/>
	<g id="XMLID_15_">
		<path id="XMLID_16_" d="M150.9,68v25.2h-5V68.8c-1.5,4.2-3.2,7.6-5,10.4l-5-2.1c4.5-6.2,7.5-12.9,9.1-19.9h-7.8v-5.3h8.8v-8.3
			l-7.6,1l-1.2-5.2c9.1-1,16-2.3,20.4-3.7l1.4,5.1l-7.9,1.9v9.2h7.9v5.3h-7.9v2c3.1,4.4,6,9,8.6,13.6l-4.5,2.8L150.9,68z
			 M161.5,86.4V40.1c0-1.2,0.6-1.8,1.8-1.8h25.4c1.3,0,1.9,0.6,1.9,1.8v46.3h3.4v5.3h-36.7v-5.3H161.5z M166.8,54.3h18.5V44.3
			c0-0.4-0.2-0.7-0.8-0.7h-17c-0.5,0-0.7,0.2-0.7,0.7V54.3z M166.8,70.6h18.5V59.6h-18.5V70.6z M166.8,86.4h18.5V75.9h-18.5V86.4z"
			/>
		<path id="XMLID_22_" d="M224.5,86V62.6h-20c-1.7,0-2.7-0.9-2.7-2.7V39.7h5.5v16.5c0,0.6,0.3,0.9,0.9,0.9h16.2V36.3h5.5v20.9h15.9
			c0.6,0,0.9-0.3,0.9-0.9V39.7h5.5v20.2c0,1.9-0.9,2.7-2.7,2.7H230V86h17.2c0.6,0,0.9-0.2,0.9-0.9V68.6h5.5v20.2
			c0,1.9-0.9,2.7-2.7,2.7h-47.4c-1.8,0-2.7-0.9-2.7-2.7V68.6h5.5v16.5c0,0.6,0.2,0.9,0.8,0.9H224.5z"/>
	</g>
</g>
</svg>
